# Made in Blockbench 4.12.4
mtllib model.mtl

o plane
v 32 0 32
v 32 0 -32
v -32 0 32
v -32 0 -32
vt 0 1
vt 0 -63
vt 64 -63
vt 64 1
vn 0 1 0
usemtl m_38d35a27-7e6d-6809-548b-3cf40c2d268f
f 1/1/1 2/2/1 4/3/1 3/4/1
o cube
v -4.5 0 4.5
v -4.5 2 4.5
v -5 2 5
v -5 1.1102230246251565e-16 5
v -1.5 0 4.500000000000001
v -1.5 2 4.5
v -1.5 2 5
v -1.5 1.1102230246251565e-16 5.000000000000001
vt 3 -1
vt 3 1
vt 0 1
vt 0 -1
vt 4 1
vt 0.5 1
vt 0.5 -1
vt 4 -1
vt 3.5 1
vt 0 1
vt 0 0.5
vt 3 0.5
vt 0 1
vt 0 -1
vt 0.5 -1
vt 0.5 1
vn 2.220446049250313e-16 -2.220446049250313e-16 -1
vn -2.220446049250313e-16 2.220446049250313e-16 1
vn 4.930380657631324e-32 1 -2.220446049250313e-16
vn 1 4.930380657631324e-32 2.220446049250313e-16
usemtl m_34192de1-f07e-4e7e-6aef-53ba4b13b139
f 5/5/2 6/6/2 10/7/2 9/8/2
f 11/9/3 7/10/3 8/11/3 12/12/3
f 7/13/4 11/14/4 10/15/4 6/16/4
f 11/17/5 12/18/5 9/19/5 10/20/5
o cube
v -4.499999999999999 -6.661338147750939e-16 1.5
v -4.499999999999999 1.9999999999999993 1.4999999999999996
v -4.5 0 4.5
v -4.5 2 4.5
v -4.999999999999999 1.9999999999999993 1.4999999999999996
v -4.999999999999999 -6.661338147750939e-16 1.5
v -5 2 5
v -5 1.1102230246251565e-16 5
vt 3 -1
vt 3 1
vt 0 1
vt 0 -1
vt 3.5 1
vt 0 1
vt 0 -1
vt 3.5 -1
vt 0.5 -1
vt 0.5 1
vt 0 1
vt 0 -1
vt 3 1
vt -0.5 1
vt 0 0.5
vt 3 0.5
vn 1 4.930380657631324e-32 2.220446049250313e-16
vn -1 -4.930380657631324e-32 -2.220446049250313e-16
vn 2.220446049250313e-16 -2.220446049250313e-16 -1
vn 4.930380657631324e-32 1 -2.220446049250313e-16
usemtl m_34192de1-f07e-4e7e-6aef-53ba4b13b139
f 13/21/6 14/22/6 16/23/6 15/24/6
f 19/25/7 17/26/7 18/27/7 20/28/7
f 18/29/8 17/30/8 14/31/8 13/32/8
f 17/33/9 19/34/9 16/35/9 14/36/9
o cube
v 4.499999999999999 0 4.500000000000001
v 4.499999999999999 2 4.500000000000001
v 4.999999999999998 2 5.000000000000001
v 4.999999999999999 1.1102230246251565e-16 5.000000000000001
v 4.500000000000001 0 1.5000000000000009
v 4.5 2 1.5000000000000009
v 5 2 1.5000000000000009
v 5.000000000000001 1.1102230246251565e-16 1.5000000000000009
vt 3 -1
vt 3 1
vt 0 1
vt 0 -1
vt 4 1
vt 0.5 1
vt 0.5 -1
vt 4 -1
vt 3.5 1
vt 0 1
vt 0 0.5
vt 3 0.5
vt 0 1
vt 0 -1
vt 0.5 -1
vt 0.5 1
vn -1 -2.220446049250313e-16 -4.440892098500626e-16
vn 1 2.220446049250313e-16 4.440892098500626e-16
vn -2.220446049250313e-16 1 -9.860761315262648e-32
vn 4.440892098500626e-16 4.930380657631324e-32 -1
usemtl m_34192de1-f07e-4e7e-6aef-53ba4b13b139
f 21/37/10 22/38/10 26/39/10 25/40/10
f 27/41/11 23/42/11 24/43/11 28/44/11
f 23/45/12 27/46/12 26/47/12 22/48/12
f 27/49/13 28/50/13 25/51/13 26/52/13
o cube
v 1.4999999999999991 -6.661338147750939e-16 4.5
v 1.4999999999999987 1.9999999999999993 4.5
v 4.499999999999999 0 4.500000000000001
v 4.499999999999999 2 4.500000000000001
v 1.4999999999999987 1.9999999999999993 5
v 1.4999999999999991 -6.661338147750939e-16 5
v 4.999999999999998 2 5.000000000000001
v 4.999999999999999 1.1102230246251565e-16 5.000000000000001
vt 3 -1
vt 3 1
vt 0 1
vt 0 -1
vt 3.5 1
vt 0 1
vt 0 -1
vt 3.5 -1
vt 0.5 -1
vt 0.5 1
vt 0 1
vt 0 -1
vt 3 1
vt -0.5 1
vt 0 0.5
vt 3 0.5
vn 4.440892098500626e-16 4.930380657631324e-32 -1
vn -4.440892098500626e-16 -4.930380657631324e-32 1
vn -1 -2.220446049250313e-16 -4.440892098500626e-16
vn -2.220446049250313e-16 1 -9.860761315262648e-32
usemtl m_34192de1-f07e-4e7e-6aef-53ba4b13b139
f 29/53/14 30/54/14 32/55/14 31/56/14
f 35/57/15 33/58/15 34/59/15 36/60/15
f 34/61/16 33/62/16 30/63/16 29/64/16
f 33/65/17 35/66/17 32/67/17 30/68/17
o cube
v 4.499999999999999 0 -4.500000000000001
v 4.499999999999999 2 -4.500000000000001
v 4.999999999999999 2 -5.000000000000001
v 4.999999999999999 1.1102230246251565e-16 -5.000000000000001
v 1.4999999999999991 0 -4.500000000000001
v 1.4999999999999991 2 -4.500000000000001
v 1.4999999999999991 2 -5.000000000000001
v 1.4999999999999991 1.1102230246251565e-16 -5.000000000000002
vt 3 -1
vt 3 1
vt 0 1
vt 0 -1
vt 4 1
vt 0.5 1
vt 0.5 -1
vt 4 -1
vt 3.5 1
vt 0 1
vt 0 0.5
vt 3 0.5
vt 0 1
vt 0 -1
vt 0.5 -1
vt 0.5 1
vn -9.957992501029599e-17 -2.220446049250313e-16 1
vn 9.957992501029599e-17 2.220446049250313e-16 -1
vn -2.2111185107375417e-32 1 2.220446049250313e-16
vn -1 4.930380657631324e-32 -9.957992501029599e-17
usemtl m_34192de1-f07e-4e7e-6aef-53ba4b13b139
f 37/69/18 38/70/18 42/71/18 41/72/18
f 43/73/19 39/74/19 40/75/19 44/76/19
f 39/77/20 43/78/20 42/79/20 38/80/20
f 43/81/21 44/82/21 41/83/21 42/84/21
o cube
v 4.499999999999999 -6.661338147750939e-16 -1.5000000000000009
v 4.499999999999999 1.9999999999999993 -1.5000000000000004
v 4.499999999999999 0 -4.500000000000001
v 4.499999999999999 2 -4.500000000000001
v 4.999999999999999 1.9999999999999993 -1.5000000000000004
v 4.999999999999999 -6.661338147750939e-16 -1.5000000000000009
v 4.999999999999999 2 -5.000000000000001
v 4.999999999999999 1.1102230246251565e-16 -5.000000000000001
vt 3 -1
vt 3 1
vt 0 1
vt 0 -1
vt 3.5 1
vt 0 1
vt 0 -1
vt 3.5 -1
vt 0.5 -1
vt 0.5 1
vt 0 1
vt 0 -1
vt 3 1
vt -0.5 1
vt 0 0.5
vt 3 0.5
vn -1 4.930380657631324e-32 -9.957992501029599e-17
vn 1 -4.930380657631324e-32 9.957992501029599e-17
vn -9.957992501029599e-17 -2.220446049250313e-16 1
vn -2.2111185107375417e-32 1 2.220446049250313e-16
usemtl m_34192de1-f07e-4e7e-6aef-53ba4b13b139
f 45/85/22 46/86/22 48/87/22 47/88/22
f 51/89/23 49/90/23 50/91/23 52/92/23
f 50/93/24 49/94/24 46/95/24 45/96/24
f 49/97/25 51/98/25 48/99/25 46/100/25
o cube
v -4.500000000000001 0 -4.499999999999999
v -4.500000000000001 2 -4.499999999999999
v -5.000000000000001 2 -4.999999999999999
v -5.000000000000001 1.1102230246251565e-16 -4.999999999999999
v -4.500000000000001 0 -1.4999999999999991
v -4.500000000000001 2 -1.4999999999999991
v -5.000000000000001 2 -1.4999999999999991
v -5.000000000000001 1.1102230246251565e-16 -1.4999999999999991
vt 3 -1
vt 3 1
vt 0 1
vt 0 -1
vt 4 1
vt 0.5 1
vt 0.5 -1
vt 4 -1
vt 3.5 1
vt 0 1
vt 0 0.5
vt 3 0.5
vt 0 1
vt 0 -1
vt 0.5 -1
vt 0.5 1
vn 1 -2.220446049250313e-16 0
vn -1 2.220446049250313e-16 0
vn 2.220446049250313e-16 1 0
vn 1.0947644252537633e-47 4.930380657631324e-32 1
usemtl m_34192de1-f07e-4e7e-6aef-53ba4b13b139
f 53/101/26 54/102/26 58/103/26 57/104/26
f 59/105/27 55/106/27 56/107/27 60/108/27
f 55/109/28 59/110/28 58/111/28 54/112/28
f 59/113/29 60/114/29 57/115/29 58/116/29
o cube
v -1.5000000000000009 -6.661338147750939e-16 -4.499999999999999
v -1.5000000000000004 1.9999999999999993 -4.499999999999999
v -4.500000000000001 0 -4.499999999999999
v -4.500000000000001 2 -4.499999999999999
v -1.5000000000000004 1.9999999999999993 -4.999999999999999
v -1.5000000000000009 -6.661338147750939e-16 -4.999999999999999
v -5.000000000000001 2 -4.999999999999999
v -5.000000000000001 1.1102230246251565e-16 -4.999999999999999
vt 3 -1
vt 3 1
vt 0 1
vt 0 -1
vt 3.5 1
vt 0 1
vt 0 -1
vt 3.5 -1
vt 0.5 -1
vt 0.5 1
vt 0 1
vt 0 -1
vt 3 1
vt -0.5 1
vt 0 0.5
vt 3 0.5
vn 1.0947644252537633e-47 4.930380657631324e-32 1
vn -1.0947644252537633e-47 -4.930380657631324e-32 -1
vn 1 -2.220446049250313e-16 0
vn 2.220446049250313e-16 1 0
usemtl m_34192de1-f07e-4e7e-6aef-53ba4b13b139
f 61/117/30 62/118/30 64/119/30 63/120/30
f 67/121/31 65/122/31 66/123/31 68/124/31
f 66/125/32 65/126/32 62/127/32 61/128/32
f 65/129/33 67/130/33 64/131/33 62/132/33