# Made in Blockbench 4.12.4
mtllib model.mtl

o plane
v 16 0 16
v 16 0 -16
v -16 0 16
v -16 0 -16
vt 0 1
vt 0 -31
vt 32 -31
vt 32 1
vn 0 1 0
usemtl m_3fb697b6-897e-6406-3d40-79a3c62aa46b
f 1/1/1 2/2/1 4/3/1 3/4/1
o plane
v -4.5 0 4
v -4.5 2 3.9999999999999996
v -1.5 0 4
v -1.5 2 4
vt 3 -1
vt 3 1
vt 0 1
vt 0 -1
vn 1.2246467991473532e-16 -2.220446049250313e-16 -1
usemtl m_63aebc06-6f6a-8b69-d27b-b84aae64c1b0
f 5/5/2 6/6/2 8/7/2 7/8/2
o plane
v -4.5 -1.5543122344752192e-15 1.0000000000000004
v -4.5 1.9999999999999984 0.9999999999999991
v -4.5 0 4
v -4.5 2 3.999999999999999
vt 3 -1
vt 3 1
vt 0 1
vt 0 -1
vn 1 -5.5511151231257765e-17 1.1102230246251568e-16
usemtl m_63aebc06-6f6a-8b69-d27b-b84aae64c1b0
f 9/9/3 10/10/3 12/11/3 11/12/3